inDegrees=yes
name=ik_lifting_orientations
DataType=double
version=3
OpenSimVersion=4.5-2024-01-10-34fd6af
endheader
time	pelvis_tilt	pelvis_list	pelvis_rotation	pelvis_tx	pelvis_ty	pelvis_tz	hip_flexion_r	hip_adduction_r	hip_rotation_r	knee_angle_r	knee_angle_r_beta	ankle_angle_r	subtalar_angle_r	mtp_angle_r	hip_flexion_l	hip_adduction_l	hip_rotation_l	knee_angle_l	knee_angle_l_beta	ankle_angle_l	subtalar_angle_l	mtp_angle_l	lumbar_extension	lumbar_bending	lumbar_rotation	arm_flex_r	arm_add_r	arm_rot_r	elbow_flex_r	pro_sup_r	wrist_flex_r	wrist_dev_r	arm_flex_l	arm_add_l	arm_rot_l	elbow_flex_l	pro_sup_l	wrist_flex_l	wrist_dev_l
0.02	0.002521020286963621	-0.001053155012235558	-90.06243332087013	0	0.9399999998679526	0	45.52899584932901	-10.68885088909077	0	60.04691093814281	1.048016301522389	-5.281065039295995	0	0	45.52899584932901	-10.68885088909077	0	60.04691093814281	1.048016301522389	-5.281065039295995	0	0	-0.002409366728924802	0.0002262068056084223	0.005108525705329913	-0.4749887482358295	-0.1179590572828384	-0.007061661651323574	0.9870991039495307	1.728227577638087	0	0	0	-11.87808403869623	0	88.30649971091725	1.728227577638087	0	0
0.03	0.01826006917061469	-0.1123366759128219	-90.11433442976823	0	0.9399999998679526	0	45.5151275486682	-10.63363642018585	0	60.04594023416663	1.047999359541943	-5.253188565229133	0	0	45.5151275486682	-10.63363642018585	0	60.04594023416663	1.047999359541943	-5.253188565229133	0	0	-0.1156439106490898	-0.01975507684116	0.06003100830696148	-0.2243286151011085	-0.07022334036823762	-0.00119029886144292	0.4939841427274276	1.696166038161641	0	0	0	-11.92113821302913	0	88.33791340656113	1.696166038161641	0	0
0.04	0.06001722194555979	-0.0719005675770908	-90.40773928536505	0	0.9399999998679526	0	45.51507225609011	-10.63340576805604	0	60.04593628363856	1.047999290592221	-5.253069067246501	0	0	45.51507225609011	-10.63340576805604	0	60.04593628363856	1.047999290592221	-5.253069067246501	0	0	-0.0730657129613804	-0.05288987754352496	0.2114807087584944	-0.24263806205256	-0.08773116531949425	0.1486177188831811	0.5082590813356411	1.696038163426313	0	0	0	-11.92131041288401	0	88.33803869739673	1.696038163426313	0	0
0.05	0.0196013084383578	-0.1202070048209996	-90.24642421688966	0	0.9399999998679526	0	45.4872421835137	-10.52837231321598	0	60.04397845209454	1.047965119985578	-5.201097203788088	0	0	45.4872421835137	-10.52837231321598	0	60.04397845209454	1.047965119985578	-5.201097203788088	0	0	-0.07004204427560021	0.01043373385414126	0.06445429684224849	-0.2897993526523141	-0.1347687410126492	0.1282039886617942	0.5024166350534531	1.631235078682109	0	0	0	-12.00871614524403	0	88.40153238991262	1.631235078682109	0	0
0.06	0.06496285881390577	-0.06311497456763886	-90.47620725865946	0	0.9399999998679526	0	45.48712239399158	-10.52792277521855	0	60.04396992694037	1.047964971193569	-5.200874471408499	0	0	45.48712239399158	-10.52792277521855	0	60.04396992694037	1.047964971193569	-5.200874471408499	0	0	-0.01087211599194488	-0.03348715454127751	0.2314188108876228	-0.2947734394973938	-0.1075943672235848	0.1806474264467	0.5077024573947706	1.630955128579615	0	0	0	-12.00909501722267	0	88.40180668347244	1.630955128579615	0	0
0.07000000000000001	0.07954365525713739	-0.1856468027005649	-90.66483586254597	0	0.9399999998679526	0	45.47251964112998	-10.47849422414856	0	60.04293199775186	1.047946855911827	-5.17743404370866	0	0	45.47251964112998	-10.47849422414856	0	60.04293199775186	1.047946855911827	-5.17743404370866	0	0	-0.1271648068473442	-0.05105361593460598	0.4244083017169705	-0.3046817465427017	-0.0968387763421401	0.2053849705454045	0.5296871107090169	1.59646411076751	0	0	0	-12.05602368009826	0	88.43560082358795	1.59646411076751	0	0
0.08	0.08053255175374711	-0.1870919848338258	-90.53274544592253	0	0.9399999998679526	0	45.46129626161665	-10.44357402570746	0	60.04212773283265	1.047932818840928	-5.161379765701223	0	0	45.46129626161665	-10.44357402570746	0	60.04212773283265	1.047932818840928	-5.161379765701223	0	0	-0.1353717120449789	-0.05300157976990182	0.2301997877929479	-0.2944077277400931	-0.1277800027335809	0.2686404013286253	0.5239001194717524	1.569649052806391	0	0	0	-12.09276662790817	0	88.46187411610578	1.569649052806391	0	0
0.09	0.06386199888456384	-0.124305836205575	-90.29835190516657	0	0.9399999998679526	0	45.45069244947479	-10.41225756042134	0	60.04136393293042	1.047919488017808	-5.147255879936129	0	0	45.45069244947479	-10.41225756042134	0	60.04136393293042	1.047919488017808	-5.147255879936129	0	0	-0.07151312485159163	-0.03409229338158382	-0.06527566745658624	-0.2977614333673166	-0.127747652137197	0.3307260453380576	0.5238893830069085	1.544132476363499	0	0	0	-12.12788483895947	0	88.48687517355813	1.544132476363499	0	0
0.1	0.01849597565750375	-0.103216011318223	-90.1298032614994	0	0.9399999998679526	0	45.44020767089174	-10.38283938331209	0	60.04060475902836	1.047906237933621	-5.13423371251968	0	0	45.44020767089174	-10.38283938331209	0	60.04060475902836	1.047906237933621	-5.13423371251968	0	0	-0.01520060355002854	0.03486649717320738	-0.3016324238663843	-0.5896642733066824	-0.1787404506966903	0.3777542033274595	1.03068706520532	1.518722319995576	0	0	0	-12.16301096954831	0	88.51177197268261	1.518722319995576	0	0
0.11	0.04136263963362835	-0.1159623578080255	-90.26199942545456	0	0.9399999998679526	0	45.43133499625024	-10.35865897465752	0	60.039960675656	1.047894996558116	-5.123647487496378	0	0	45.43133499625024	-10.35865897465752	0	60.039960675656	1.047894996558116	-5.123647487496378	0	0	0.002278204202207264	0.02071235285869819	-0.2408099345058923	-0.3705657636118577	-0.1303171672403462	0.4466468957778475	0.5361178748043376	1.497136088663551	0	0	0	-12.19292080331933	0	88.53292210600198	1.497136088663551	0	0
0.12	-0.002726027281379561	-0.09876140749112608	-90.09349000985988	0	0.9399999998679526	0	45.42031918999044	-10.33094791256097	0	60.03915464279031	1.047880928630731	-5.111866549104105	0	0	45.42031918999044	-10.33094791256097	0	60.03915464279031	1.047880928630731	-5.111866549104105	0	0	0.0215829578581476	0.06045735132025956	-0.4257936620547472	-0.3809743617617551	-0.1008869967183423	0.4420751855356752	0.5410250828554698	1.470038567183229	0	0	0	-12.2307238019923	0	88.55947220580842	1.470038567183229	0	0
0.13	-0.02378126796640513	-0.06243874856608066	-89.93444949688271	0	0.9399999998679526	0	45.41017100691887	-10.30648562361768	0	60.03840897115165	1.047867914205498	-5.101627502211992	0	0	45.41017100691887	-10.30648562361768	0	60.03840897115165	1.047867914205498	-5.101627502211992	0	0	0.05130259497814479	0.08908351075203352	-0.6221127884095403	-0.3680865716314526	-0.1170546384030429	0.4715463397314871	0.5301190615782727	1.444927648360967	0	0	0	-12.26588301443414	0	88.58407584455882	1.444927648360967	0	0
0.14	-0.04560089849637818	0.008809394632665992	-90.06850176644187	0	0.9399999998679526	0	45.40123697781519	-10.285640981827	0	60.03775041798978	1.047856420284524	-5.09300654466046	0	0	45.40123697781519	-10.285640981827	0	60.03775041798978	1.047856420284524	-5.09300654466046	0	0	0.1205219756269726	0.1228953287960742	-0.4995912116569922	-0.6052125723493881	-0.1585503002090167	0.4690498341366641	1.026409857142708	1.422721958521323	0	0	0	-12.29706009814419	0	88.60583294987688	1.422721958521323	0	0
0.15	0.002057287952382765	-0.03144925693150592	-90.31437811568713	0	0.9399999998679526	0	45.39169062460815	-10.26475098487094	0	60.03704231522563	1.047844061559847	-5.084574231887399	0	0	45.39169062460815	-10.26475098487094	0	60.03704231522563	1.047844061559847	-5.084574231887399	0	0	0.09334306007552048	0.07290384762983201	-0.1412954717668232	-0.4406072331352349	-0.1071012468372512	0.3576466249343705	0.6590725790214953	1.398789192454634	0	0	0	-12.33084034585779	0	88.62928225337581	1.398789192454634	0	0
0.16	0.04615685158747779	-0.06189374500604422	-90.54791267993531	0	0.9399999998679526	0	45.39161013348426	-10.26456559236644	0	60.03703624569253	1.04784395562651	-5.084497361401512	0	0	45.39161013348426	-10.26456559236644	0	60.03703624569253	1.04784395562651	-5.084497361401512	0	0	0.1078184132638231	0.05221945843249254	0.160726182011603	-0.3876229124025218	-0.08370286743600368	0.2922147582683728	0.5054746726538957	1.398587627342862	0	0	0	-12.33112528157747	0	88.62947974665519	1.398587627342862	0	0
0.17	0.04736440452937909	-0.06337889788305348	-90.49356999551036	0	0.9399999998679526	0	45.37507590949195	-10.23020792241079	0	60.03580400004486	1.047822448882765	-5.070896725404479	0	0	45.37507590949195	-10.23020792241079	0	60.03580400004486	1.047822448882765	-5.070896725404479	0	0	0.1551996746228694	0.06886937231003561	0.1165997882166071	-0.4258727416886184	-0.1027855699102441	0.3113131289696185	0.4970612308672048	1.356848342151075	0	0	0	-12.39028826096537	0	88.67037587719108	1.356848342151075	0	0
0.18	0.06019977189988496	-0.1837911997937929	-90.61294622126397	0	0.9399999998679526	0	45.35536225788729	-10.19306929693454	0	60.03432089998268	1.047796563903543	-5.056729912632621	0	0	45.35536225788729	-10.19306929693454	0	60.03432089998268	1.047796563903543	-5.056729912632621	0	0	0.04126153666399082	0.0540311395379104	0.2338070719285486	-0.4342141113878166	-0.07513171425682533	0.3032018015588879	0.507990305932744	1.306423982970785	0	0	0	-12.46234095354888	0	88.71978167117204	1.306423982970785	0	0
0.19	0.1237990768019836	-0.2575703002842558	-90.97508332356641	0	0.9399999998679526	0	45.35527772078059	-10.19291345692015	0	60.0343143679141	1.047796449897439	-5.056670519166889	0	0	45.35527772078059	-10.19291345692015	0	60.0343143679141	1.047796449897439	-5.056670519166889	0	0	-0.02988849108199946	-0.00902452694991791	0.662971409953888	-0.4386542718240667	-0.07173261237998355	0.2336700489282597	0.5035105702268471	1.306205749380839	0	0	0	-12.46265535912223	0	88.71999549653432	1.306205749380839	0	0
0.2	0.08017865986822506	-0.1824504334470786	-90.66744439228799	0	0.9399999998679526	0	45.35519219658553	-10.19275520221001	0	60.03430778270446	1.047796334963849	-5.056610172294978	0	0	45.35519219658553	-10.19275520221001	0	60.03430778270446	1.047796334963849	-5.056610172294978	0	0	0.04406808345187278	0.03535512778908487	0.2947419200620954	-0.4341823378388777	-0.05703103669174954	0.2943898940996622	0.49701237427776	1.305985254800774	0	0	0	-12.46297266511787	0	88.72021153720594	1.305985254800774	0	0
0.21	0.01450553906749338	-0.180267841288275	-90.30902175541573	0	0.9399999998679526	0	45.35511052486142	-10.1926052465702	0	60.03430145741996	1.047796224566809	-5.056553080957699	0	0	45.35511052486142	-10.1926052465702	0	60.03430145741996	1.047796224566809	-5.056553080957699	0	0	0.10140350646747	0.1198993443385951	-0.1233948254118591	-0.4882994031770226	-0.06182403783414026	0.3512665897081078	0.4942244814845966	1.305774205458054	0	0	0	-12.4632769683162	0	88.72041832344762	1.305774205458054	0	0
0.22	0.0341963177760563	-0.1328768368918265	-90.54609954938162	0	0.9399999998679526	0	45.35507866319762	-10.19254689657648	0	60.0342989864679	1.047796181440559	-5.056530881635927	0	0	45.35507866319762	-10.19254689657648	0	60.0342989864679	1.047796181440559	-5.056530881635927	0	0	0.1448093447550362	0.09968723892102668	-0.02320176927014489	-0.4965962933185533	-0.06763679432362033	0.4943796424197451	0.5160754374464687	1.305691822736325	0	0	0	-12.46339580675625	0	88.72049904207735	1.305691822736325	0	0
0.23	0.06445937096222708	-0.06320462562173079	-90.79451999997087	0	0.9399999998679526	0	45.35500043628051	-10.19240091749962	0	60.03429300831908	1.047796077102179	-5.056475140708858	0	0	45.35500043628051	-10.19240091749962	0	60.03429300831908	1.047796077102179	-5.056475140708858	0	0	0.221361649413422	0.06444076635658734	0.2014460484006993	-0.4883314167053043	-0.01784983541537496	0.5092660277868061	0.485239183162204	1.305490706834378	0	0	0	-12.4636845300687	0	88.72069609549379	1.305490706834378	0	0
0.24	0.04396629977247678	-0.05977960565133803	-90.56450443069535	0	0.9399999998679526	0	45.35492745034387	-10.19226633835696	0	60.03428738016616	1.04779597887238	-5.056423878184508	0	0	45.35492745034387	-10.19226633835696	0	60.03428738016616	1.04779597887238	-5.056423878184508	0	0	0.2276778891615834	0.08309297284646804	-0.05725784715154768	-0.4948298870827082	-0.003149676664082928	0.5343147856135436	0.4908506153532874	1.305302397355007	0	0	0	-12.46395567588016	0	88.72088060119707	1.305302397355007	0	0
